<?xml version="1.0" standalone="no"?>
<!DOCTYPE svg PUBLIC "-//W3C//DTD SVG 20010904//EN"
 "http://www.w3.org/TR/2001/REC-SVG-20010904/DTD/svg10.dtd">
<svg version="1.0" xmlns="http://www.w3.org/2000/svg"
 width="512.000000pt" height="512.000000pt" viewBox="0 0 512.000000 512.000000"
 preserveAspectRatio="xMidYMid meet">
<metadata>
Created by potrace 1.14, written by Peter Selinger 2001-2017
</metadata>
<g transform="translate(0.000000,512.000000) scale(0.100000,-0.100000)"
fill="#000000" stroke="none">
<path d="M2482 4273 c-6 -2 -9 -10 -5 -16 4 -7 1 -7 -9 1 -9 7 -19 9 -22 4 -3
-5 -19 -8 -36 -7 -16 1 -30 -2 -30 -7 0 -5 -4 -7 -9 -3 -5 3 -12 1 -15 -4 -3
-5 -16 -7 -29 -4 -16 3 -18 2 -9 -5 11 -7 11 -10 -2 -15 -8 -3 -18 -1 -22 5
-4 7 -14 2 -26 -13 -11 -13 -17 -18 -13 -12 8 17 -27 4 -41 -15 -6 -8 -16 -12
-21 -9 -6 4 -13 0 -17 -8 -3 -8 -13 -15 -21 -15 -9 0 -13 -4 -10 -10 5 -9 -7
-14 -27 -11 -4 0 -16 -13 -28 -29 -12 -17 -26 -28 -31 -24 -5 3 -9 2 -8 -3 3
-20 -2 -34 -11 -28 -5 3 -10 -2 -10 -11 0 -10 -3 -15 -6 -11 -8 8 -33 -16 -27
-25 4 -8 -12 -12 -30 -9 -5 1 -6 -3 -3 -8 4 -5 -3 -16 -14 -24 -11 -7 -17 -17
-13 -20 3 -4 -1 -7 -11 -7 -9 0 -14 -4 -11 -10 6 -9 -8 -14 -28 -11 -5 1 -6
-3 -2 -9 3 -5 -1 -13 -9 -16 -9 -3 -14 -10 -11 -14 3 -4 -2 -13 -10 -20 -13
-11 -15 -10 -10 6 4 10 -1 6 -10 -9 -9 -15 -20 -25 -25 -22 -5 3 -12 0 -16 -6
-4 -8 -3 -9 4 -5 7 4 12 4 12 1 0 -10 -27 -35 -32 -29 -3 2 -11 -3 -19 -13
-12 -14 -12 -16 0 -8 10 6 12 4 7 -4 -5 -7 -14 -10 -21 -7 -9 3 -12 -2 -10
-14 3 -14 -1 -17 -12 -13 -13 5 -15 2 -10 -11 4 -10 3 -15 -3 -11 -12 7 -42
-20 -33 -29 6 -6 -12 -10 -30 -7 -5 1 -6 -3 -2 -9 3 -5 -1 -13 -9 -16 -9 -3
-14 -10 -11 -14 7 -11 -50 -52 -59 -43 -4 4 -4 -1 0 -11 6 -15 4 -17 -6 -11
-10 6 -12 4 -7 -9 4 -10 3 -15 -3 -11 -12 7 -42 -20 -33 -29 6 -6 -12 -10 -30
-7 -5 1 -6 -3 -2 -9 3 -5 -1 -13 -9 -16 -9 -3 -14 -10 -11 -14 3 -5 1 -11 -5
-15 -5 -3 -10 0 -11 7 0 7 -7 -2 -15 -20 -8 -18 -18 -31 -23 -28 -13 8 -34
-21 -25 -35 4 -7 3 -9 -4 -5 -11 6 -116 -83 -108 -92 3 -2 -9 -14 -26 -26 -18
-11 -31 -25 -29 -30 1 -5 -9 -16 -23 -26 -15 -9 -23 -20 -19 -23 3 -4 -1 -7
-11 -7 -9 0 -14 -4 -11 -10 6 -9 -8 -14 -28 -11 -5 1 -6 -3 -2 -9 3 -5 1 -10
-5 -10 -6 0 -8 -4 -5 -10 6 -9 -8 -14 -28 -11 -5 1 -6 -3 -2 -9 3 -5 -1 -13
-9 -16 -9 -3 -14 -10 -11 -14 3 -4 -2 -13 -10 -20 -13 -11 -15 -10 -10 6 3 10
0 7 -8 -8 -7 -14 -25 -36 -40 -48 -15 -12 -25 -25 -22 -29 2 -5 -7 -21 -20
-37 -14 -16 -24 -36 -22 -44 1 -8 -4 -14 -12 -12 -12 3 -12 1 0 -14 8 -10 9
-15 3 -11 -12 7 -28 -48 -18 -64 3 -5 -3 -6 -12 -2 -12 4 -15 3 -10 -6 4 -6 4
-17 -1 -24 -5 -7 -9 -24 -8 -39 0 -15 -3 -24 -7 -22 -4 3 -7 -14 -6 -38 2 -24
-1 -49 -5 -55 -5 -8 -3 -13 4 -13 8 0 8 -4 -1 -15 -7 -8 -8 -15 -3 -15 11 0 9
-42 -2 -59 -3 -6 2 -11 12 -12 16 0 16 -1 -2 -9 l-20 -9 20 0 c17 -1 17 -3 5
-11 -10 -6 -11 -10 -2 -10 6 0 12 -5 12 -11 0 -5 -6 -7 -12 -4 -7 4 -6 1 3 -7
9 -7 14 -19 11 -26 -2 -7 1 -19 8 -27 6 -8 9 -19 5 -24 -3 -6 3 -16 14 -23 18
-11 18 -13 3 -25 -9 -7 -12 -13 -7 -12 24 3 34 -2 29 -16 -4 -8 -1 -15 6 -15
6 0 9 -4 6 -9 -3 -5 1 -14 9 -21 8 -7 15 -17 15 -22 0 -15 27 -38 36 -30 5 4
2 -2 -6 -13 -8 -11 -10 -17 -6 -13 5 5 16 -1 23 -12 8 -12 20 -17 26 -13 7 4
6 -1 -2 -11 -8 -9 -10 -16 -5 -15 21 4 34 -2 34 -16 0 -8 5 -15 11 -15 5 0 7
-4 4 -10 -3 -6 1 -7 9 -4 11 4 16 0 16 -11 0 -9 5 -13 10 -10 6 3 10 -1 10 -9
0 -9 5 -16 10 -16 18 0 51 -40 43 -53 -4 -7 0 -6 11 2 9 8 16 10 15 5 -4 -22
2 -34 17 -34 8 0 12 -5 9 -10 -3 -6 -1 -10 5 -10 6 0 8 -4 5 -10 -3 -6 1 -7 9
-4 11 4 16 0 16 -11 0 -9 5 -13 10 -10 5 3 10 1 10 -5 0 -15 26 -41 34 -33 3
4 6 1 6 -6 0 -14 24 -41 37 -41 4 -1 17 -15 28 -33 11 -18 30 -36 43 -42 12
-5 20 -15 18 -22 -3 -7 1 -10 8 -7 8 3 17 0 22 -7 5 -8 3 -10 -6 -4 -9 5 -11
4 -6 -3 4 -7 14 -12 22 -12 8 0 13 -6 12 -12 -2 -7 3 -12 10 -10 6 1 12 -3 12
-9 0 -14 26 -39 41 -39 7 0 10 -3 6 -6 -8 -8 18 -34 33 -34 6 0 8 -4 5 -10 -3
-5 1 -10 9 -10 8 0 18 -5 22 -12 5 -7 3 -8 -6 -3 -9 5 -11 4 -6 -3 4 -7 14
-12 22 -12 8 0 13 -6 12 -12 -2 -7 3 -12 10 -10 6 1 12 -3 12 -9 0 -13 26 -40
33 -33 2 3 7 -7 11 -21 4 -16 13 -25 27 -25 11 0 17 -4 14 -10 -6 -9 8 -15 29
-11 5 1 3 -5 -4 -14 -11 -13 -10 -15 3 -10 10 4 17 -1 22 -14 3 -12 13 -21 21
-21 8 0 12 -4 9 -10 -3 -5 1 -10 10 -10 9 0 13 -5 10 -10 -3 -6 -1 -10 5 -10
6 0 8 -4 5 -10 -3 -6 1 -7 9 -4 11 4 16 0 16 -12 0 -16 2 -17 10 -4 8 13 10
12 10 -4 0 -23 52 -84 68 -78 7 2 12 -2 12 -8 0 -6 6 -18 14 -26 11 -11 16
-11 19 -1 3 7 6 4 6 -6 1 -18 31 -57 31 -40 0 4 9 -5 19 -20 13 -20 20 -25 24
-15 4 10 6 10 6 0 1 -7 5 -11 10 -7 6 3 8 -3 6 -14 -2 -14 1 -18 10 -15 7 3
24 -2 37 -10 14 -9 28 -14 31 -11 4 3 5 2 2 -2 -7 -9 27 -32 48 -33 9 0 17 -5
17 -11 0 -8 5 -7 15 1 13 11 14 10 9 -4 -4 -12 -2 -15 9 -10 9 3 25 1 36 -6
16 -8 21 -8 21 2 1 7 7 2 15 -12 12 -21 14 -22 15 -6 0 15 3 16 15 6 8 -6 19
-9 25 -5 5 3 10 1 10 -6 0 -8 4 -8 15 1 8 7 15 8 15 3 0 -5 9 -9 20 -10 11 -1
18 2 16 6 -3 4 1 8 9 8 8 0 12 -3 10 -7 -5 -9 73 -6 81 3 4 3 16 1 27 -5 16
-8 19 -8 14 5 -5 13 -1 14 25 7 24 -7 28 -7 19 4 -8 9 -7 13 4 13 8 0 15 -3
15 -7 0 -4 6 -7 14 -7 9 0 12 6 8 16 -5 14 -4 14 13 1 10 -8 16 -10 12 -4 -4
7 0 15 9 18 10 4 13 2 8 -7 -5 -8 -2 -7 9 2 9 7 17 10 17 7 0 -4 7 0 16 8 8 9
22 16 29 16 8 0 17 5 21 12 5 7 3 8 -6 3 -9 -5 -11 -4 -6 4 6 9 11 9 24 -1 9
-7 13 -8 10 -3 -7 11 11 29 30 31 28 2 32 5 29 17 -1 6 6 11 15 11 10 -1 16 2
13 6 -3 5 4 15 15 23 11 7 17 17 13 20 -6 6 11 11 29 8 4 0 4 7 1 17 -6 15 -5
15 10 3 15 -12 17 -12 11 4 -6 14 -4 16 6 10 10 -6 12 -4 7 8 -4 11 -1 17 8
17 8 0 15 7 15 16 0 10 5 14 16 10 10 -4 13 -2 8 6 -5 7 -2 9 8 5 12 -4 14 -1
10 15 -3 13 -1 19 5 15 6 -4 14 0 17 9 3 8 11 12 16 9 6 -4 9 -1 8 7 -2 7 3
12 10 10 6 -1 11 1 11 5 -3 21 2 33 15 33 8 0 16 7 20 15 3 8 12 15 20 15 10
0 13 6 9 15 -3 9 -2 15 3 14 22 -4 34 2 34 16 0 8 5 15 11 15 5 0 7 5 4 10 -3
6 1 10 9 10 9 0 16 7 16 15 0 9 6 12 17 8 10 -4 14 -2 10 4 -3 5 4 16 18 23
15 8 21 18 18 29 -4 9 -3 13 1 9 10 -8 47 23 40 34 -3 4 0 8 6 8 7 0 21 10 32
22 11 13 16 17 12 9 -5 -10 -3 -12 5 -7 7 5 10 14 7 22 -3 8 1 14 10 14 10 0
14 6 11 14 -4 10 0 14 13 11 14 -3 17 1 13 12 -5 13 -2 15 15 11 16 -4 19 -2
15 10 -5 11 -3 13 7 7 8 -5 11 -4 6 3 -3 6 3 17 15 26 12 8 18 19 15 24 -4 6
2 8 14 5 12 -3 20 -1 18 5 -2 5 9 21 25 35 15 14 27 30 27 35 0 6 8 9 18 8 11
-1 17 6 17 19 0 13 6 19 18 17 10 -2 16 3 15 10 -2 7 2 12 9 11 8 -2 10 4 6
14 -5 13 -2 15 15 11 14 -4 19 -2 16 7 -3 7 2 15 11 19 9 3 13 10 10 16 -3 5
0 10 8 10 8 0 17 7 21 15 3 8 13 15 23 15 15 0 16 2 3 10 -13 8 -12 10 3 10 9
0 17 5 17 11 0 5 5 7 12 3 7 -4 8 -3 4 5 -4 6 0 14 8 17 9 3 14 10 11 14 -3 4
5 10 16 13 14 4 18 10 13 18 -5 9 -2 10 10 6 13 -5 19 -1 23 13 3 11 10 17 16
13 6 -3 7 -1 3 5 -3 6 5 22 19 36 14 15 24 30 20 35 -3 5 0 13 6 17 8 4 9 3 5
-4 -4 -7 -3 -12 2 -12 15 0 22 28 9 34 -7 2 -4 5 6 5 9 1 16 4 16 9 -3 19 2
33 11 27 9 -5 19 21 29 73 1 4 6 0 11 -8 5 -8 10 -10 10 -5 0 6 -5 17 -10 25
-7 11 -4 20 13 33 20 16 20 17 2 11 -20 -6 -20 -5 -1 10 20 16 20 16 0 16 -16
1 -16 3 6 15 14 8 19 14 12 15 -9 0 -10 5 -2 19 13 26 13 34 -2 25 -7 -4 -2 5
12 20 14 15 19 26 11 24 -7 -2 -16 3 -19 11 -2 8 0 11 6 7 6 -4 8 2 4 16 -4
15 -2 19 7 13 8 -4 6 3 -3 18 -13 20 -14 26 -4 30 10 4 10 6 1 6 -7 1 -13 6
-13 12 0 5 6 7 13 3 9 -6 9 -4 1 7 -6 8 -10 24 -9 37 1 12 -1 22 -5 22 -3 0
-6 9 -7 20 -1 13 2 18 9 14 7 -4 8 -2 4 4 -4 6 -14 9 -24 6 -14 -5 -14 -3 2
10 16 13 17 16 4 16 -9 0 -18 7 -22 15 -3 8 -1 15 4 15 6 0 10 -5 10 -12 0 -6
3 -8 7 -5 3 4 -1 15 -10 25 -10 10 -14 22 -10 25 3 4 2 7 -4 7 -6 0 -13 14
-16 30 -4 17 -13 30 -21 30 -9 0 -13 7 -11 20 2 12 -2 20 -10 20 -13 0 -31 36
-27 53 1 4 -8 7 -20 8 -13 0 -18 3 -11 5 8 4 7 11 -5 23 -9 10 -20 16 -24 14
-5 -2 -8 6 -8 19 0 18 -2 20 -10 8 -6 -10 -10 -11 -10 -2 0 15 -36 52 -51 52
-5 0 -7 5 -4 10 3 6 -2 10 -12 10 -15 0 -16 2 -3 10 13 9 13 10 0 11 -8 1 -19
1 -23 0 -5 -1 -6 2 -3 7 2 4 1 14 -5 22 -7 13 -9 13 -9 0 -1 -9 -5 -6 -10 8
-5 12 -16 22 -25 22 -8 0 -15 6 -15 14 0 8 -7 17 -16 20 -9 3 -14 12 -11 20 4
10 0 12 -15 8 -14 -3 -19 -1 -14 6 4 8 0 12 -11 12 -15 0 -16 2 -3 10 12 8 10
10 -10 10 -18 0 -21 3 -12 9 10 6 9 10 -7 14 -12 3 -21 13 -21 22 0 15 -3 15
-16 5 -8 -8 -14 -9 -13 -4 4 22 -2 34 -18 34 -9 0 -14 3 -11 6 4 3 -9 21 -28
41 -19 19 -34 39 -34 45 0 6 -6 5 -16 -2 -8 -8 -14 -9 -13 -4 4 22 -2 34 -18
34 -15 0 -16 2 -3 10 13 8 12 10 -3 10 -11 0 -21 8 -24 18 -2 10 -14 22 -26
28 -12 5 -21 15 -20 22 2 7 0 11 -5 11 -16 -3 -32 1 -31 9 4 27 -1 34 -17 22
-8 -8 -14 -9 -13 -4 4 21 -2 33 -20 39 -13 4 -18 12 -14 22 4 11 2 14 -5 9 -7
-4 -12 -2 -12 4 0 7 -6 10 -14 7 -9 -4 -13 2 -12 16 1 16 -4 21 -18 19 -12 -2
-16 1 -10 9 5 8 2 11 -8 7 -11 -5 -14 0 -12 17 1 16 -2 22 -11 19 -7 -3 -15 2
-19 11 -4 11 -12 15 -22 11 -14 -6 -15 -4 -4 9 7 9 9 15 4 13 -5 -2 -9 1 -9 6
0 5 -10 13 -23 17 -14 5 -20 13 -16 20 4 8 3 9 -4 5 -7 -4 -12 -2 -12 3 0 6
-7 11 -15 11 -8 0 -15 7 -15 15 0 9 -10 20 -22 25 -14 5 -17 9 -8 10 10 1 9 4
-5 9 -11 5 -20 14 -20 22 0 8 -9 13 -23 13 -19 -1 -21 1 -10 15 7 9 8 13 4 9
-11 -9 -48 31 -40 43 3 5 -1 6 -9 4 -7 -3 -28 8 -45 25 -18 16 -39 30 -47 30
-9 0 -13 5 -10 10 6 10 -7 14 -34 11 -7 -2 -10 2 -7 7 3 5 -4 12 -15 15 -12 3
-19 10 -15 15 3 5 -1 9 -9 9 -8 0 -12 -4 -9 -9 3 -4 0 -8 -5 -8 -6 0 -11 8
-11 17 0 13 -3 14 -12 5 -15 -15 -29 -15 -25 0 1 7 -2 13 -8 13 -20 3 -71 17
-93 26 -18 7 -21 6 -16 -3 6 -9 3 -9 -9 1 -13 10 -17 10 -17 1 0 -9 -8 -7 -26
5 -15 9 -24 12 -20 7 11 -18 -18 -20 -44 -3 -13 9 -21 11 -17 5 4 -7 0 -14 -8
-18 -8 -3 -17 0 -21 6 -5 7 -2 8 6 3 9 -5 11 -4 6 3 -4 7 -8 12 -9 11 -1 0 -8
-3 -15 -6z m-369 -168 c-3 -9 -8 -14 -10 -11 -3 3 -2 9 2 15 9 16 15 13 8 -4z
m-773 -768 c0 -2 -12 -14 -27 -28 l-28 -24 24 28 c23 25 31 32 31 24z m-330
-341 c0 -2 -8 -10 -17 -17 -16 -13 -17 -12 -4 4 13 16 21 21 21 13z m421
-1263 c13 -16 12 -17 -3 -4 -17 13 -22 21 -14 21 2 0 10 -8 17 -17z m539 -538
c13 -14 21 -25 18 -25 -2 0 -15 11 -28 25 -13 14 -21 25 -18 25 2 0 15 -11 28
-25z"/>
<path d="M1160 4105 c-7 -8 -19 -15 -26 -15 -8 0 -14 -5 -14 -12 0 -6 -3 -9
-6 -5 -7 7 -44 -29 -44 -43 0 -5 -6 -10 -14 -10 -8 0 -13 -8 -12 -17 0 -10 -4
-17 -9 -16 -16 2 -13 -159 3 -165 6 -2 12 -9 12 -15 0 -6 8 -19 18 -30 12 -15
13 -18 2 -13 -8 4 -4 -2 10 -13 24 -19 36 -25 52 -22 4 0 5 -6 2 -13 -4 -11 2
-14 20 -12 14 2 26 -1 26 -7 0 -6 3 -7 6 -4 4 3 15 2 25 -4 14 -7 19 -6 19 2
0 8 5 7 17 -2 14 -12 16 -12 8 0 -6 11 -4 13 8 8 10 -4 17 -1 17 6 0 8 4 6 10
-3 6 -10 10 -11 10 -2 0 6 8 12 19 12 22 0 44 23 33 36 -4 4 1 2 11 -5 15 -12
17 -12 11 4 -4 10 -3 16 2 13 5 -3 15 0 22 8 7 8 10 14 7 14 -4 0 1 7 9 16 15
15 20 34 17 62 -1 6 3 12 10 12 8 0 8 4 -1 15 -10 12 -10 15 1 15 11 0 11 2
-1 10 -13 9 -13 10 0 10 10 0 11 3 4 8 -6 4 -10 18 -9 31 1 13 -9 36 -21 51
-13 15 -21 30 -17 34 3 3 -1 6 -11 6 -9 0 -14 5 -11 10 3 6 -3 10 -15 10 -12
0 -18 5 -15 10 6 10 3 11 -35 14 -12 0 -25 8 -30 16 -7 11 -10 11 -10 2 0 -8
-5 -10 -12 -5 -21 13 -62 9 -76 -7 -12 -13 -13 -13 -8 3 7 21 2 22 -14 2z"/>
</g>
</svg>
