<?xml version="1.0" standalone="no"?>
<!DOCTYPE svg PUBLIC "-//W3C//DTD SVG 20010904//EN"
 "http://www.w3.org/TR/2001/REC-SVG-20010904/DTD/svg10.dtd">
<svg version="1.0" xmlns="http://www.w3.org/2000/svg"
 width="500.000000pt" height="500.000000pt" viewBox="0 0 500.000000 500.000000"
 preserveAspectRatio="xMidYMid meet">
<metadata>
Created by potrace 1.14, written by Peter Selinger 2001-2017
</metadata>
<g transform="translate(0.000000,500.000000) scale(0.100000,-0.100000)"
fill="#000000" stroke="none">
<path d="M2380 4974 c-161 -21 -344 -95 -480 -196 -60 -45 -1021 -999 -1017
-1010 6 -18 252 -184 325 -220 78 -38 91 -41 191 -46 110 -5 184 1 210 17 12
8 12 13 -3 35 -13 21 -24 26 -60 26 -47 0 -69 17 -80 63 -5 20 -13 27 -29 27
-35 0 -64 37 -86 110 -27 85 -26 102 5 139 23 28 25 35 15 63 -28 78 -7 99
139 140 63 17 117 33 119 34 2 2 -3 26 -10 53 -8 33 -19 53 -31 57 -48 15 -66
85 -30 117 25 22 75 21 95 -1 20 -22 21 -70 2 -95 -11 -16 -11 -26 0 -64 8
-25 16 -47 18 -50 3 -2 55 9 116 26 61 17 119 31 129 31 25 0 55 -34 67 -78 8
-27 17 -38 38 -43 44 -12 54 -25 76 -99 28 -91 27 -125 -4 -154 -22 -20 -24
-27 -15 -50 15 -40 13 -45 -26 -82 -31 -27 -35 -37 -30 -60 7 -26 8 -26 54
-18 80 14 183 10 220 -10 82 -43 102 -93 102 -252 0 -189 31 -281 128 -379 79
-80 153 -127 321 -207 181 -85 236 -114 337 -176 100 -62 217 -110 309 -127
298 -54 353 -75 566 -215 189 -123 231 -140 367 -150 137 -9 157 -20 186 -103
35 -96 2 -114 -139 -78 -44 11 -118 27 -165 35 -57 11 -102 27 -140 49 -85 51
-168 78 -290 96 -36 5 -128 20 -205 32 -116 18 -187 22 -409 24 l-268 2 6 -45
c7 -49 59 -142 103 -183 75 -71 262 -171 416 -223 149 -51 246 -66 440 -66
235 0 324 -19 415 -88 70 -53 8 -108 -108 -95 -36 4 -292 7 -570 8 l-505 0
-85 41 c-47 22 -125 67 -175 99 -107 69 -535 382 -553 404 -6 9 -35 53 -62 97
-52 85 -136 172 -250 258 -36 28 -90 71 -121 98 l-56 48 -32 -16 c-21 -10 -44
-14 -64 -10 -44 9 -184 -39 -220 -76 -21 -21 -38 -28 -67 -28 -32 0 -43 -6
-74 -44 -20 -24 -36 -53 -36 -64 0 -23 -25 -52 -44 -52 -7 0 -21 9 -30 19 -10
11 -42 27 -72 37 -67 21 -93 39 -78 53 7 8 27 5 69 -9 83 -29 116 -20 160 40
35 47 35 50 23 89 -11 35 -20 44 -61 61 -72 31 -102 21 -156 -51 -26 -34 -53
-59 -63 -59 -29 0 -21 19 36 89 30 36 56 77 58 91 4 33 50 40 70 12 7 -11 37
-30 66 -42 51 -22 55 -22 82 -7 31 19 72 22 98 8 11 -6 43 0 94 17 96 32 109
52 83 134 -26 80 -97 163 -227 261 -162 123 -230 176 -253 195 -90 77 -526
422 -532 422 -12 0 -434 -427 -486 -492 -86 -107 -149 -242 -189 -403 -31
-124 -28 -338 6 -470 32 -123 97 -261 169 -357 76 -101 1635 -1654 1712 -1705
196 -131 382 -181 629 -170 217 10 369 63 541 188 118 85 1655 1629 1717 1724
96 147 141 271 165 449 15 109 15 129 0 240 -26 203 -89 354 -212 511 -35 44
-413 429 -842 856 -580 578 -796 787 -848 821 -124 81 -219 122 -355 154 -64
15 -283 26 -350 18z"/>
<path d="M443 4726 c-275 -128 -226 -540 71 -596 153 -29 287 41 352 184 23
52 26 67 22 140 -7 128 -64 216 -173 268 -81 38 -194 40 -272 4z"/>
<path d="M1655 2577 c-33 -11 -61 -21 -63 -22 -2 -2 3 -16 10 -33 l13 -31 63
21 c64 22 70 29 49 64 l-12 21 -60 -20z"/>
</g>
</svg>
