<?xml version="1.0" standalone="no"?>
<!DOCTYPE svg PUBLIC "-//W3C//DTD SVG 20010904//EN"
 "http://www.w3.org/TR/2001/REC-SVG-20010904/DTD/svg10.dtd">
<svg version="1.0" xmlns="http://www.w3.org/2000/svg"
 width="1563.000000pt" height="1563.000000pt" viewBox="0 0 1563.000000 1563.000000"
 preserveAspectRatio="xMidYMid meet">
<metadata>
Created by potrace 1.14, written by Peter Selinger 2001-2017
</metadata>
<g transform="translate(0.000000,1563.000000) scale(0.100000,-0.100000)"
fill="#000000" stroke="none">
<path d="M7577 15394 c-4 -4 -22 -9 -40 -10 -18 -2 -61 -6 -97 -9 -36 -4 -85
-8 -110 -11 -24 -2 -51 -6 -60 -10 -8 -3 -34 -8 -57 -9 -23 -2 -52 -7 -65 -11
-25 -8 -29 -9 -69 -17 -15 -3 -71 -17 -125 -32 -55 -15 -103 -28 -109 -29 -5
-1 -14 -4 -20 -8 -13 -7 -78 -22 -87 -20 -5 1 -8 -3 -8 -8 0 -5 -3 -9 -7 -8
-5 0 -17 -2 -28 -7 -11 -4 -56 -21 -100 -38 -44 -17 -89 -36 -101 -44 -11 -7
-24 -10 -27 -6 -4 3 -7 1 -7 -5 0 -7 -3 -11 -7 -10 -11 2 -126 -55 -135 -67
-4 -5 -8 -7 -8 -3 0 7 -151 -80 -185 -107 -10 -8 -25 -15 -32 -15 -7 0 -13 -4
-13 -10 0 -5 -5 -10 -10 -10 -6 0 -16 -5 -23 -10 -7 -6 -50 -38 -97 -71 -47
-34 -93 -71 -102 -83 -10 -11 -18 -17 -18 -11 0 5 -17 -7 -37 -26 -21 -20 -52
-47 -70 -61 -18 -14 -29 -29 -26 -32 4 -3 1 -6 -5 -6 -15 0 -2832 -2816 -2832
-2831 0 -5 -4 -8 -8 -5 -8 5 -43 -29 -1124 -1114 -620 -623 -788 -797 -788
-817 0 -5 -9 -15 -20 -23 -11 -8 -20 -20 -20 -27 0 -7 -3 -13 -8 -13 -4 0 -27
-30 -52 -67 -46 -69 -66 -95 -88 -119 -7 -7 -13 -17 -12 -21 0 -4 -13 -28 -29
-53 -15 -25 -45 -76 -65 -114 -20 -38 -40 -74 -46 -81 -5 -6 -7 -15 -3 -18 3
-4 1 -7 -5 -7 -7 0 -11 -3 -10 -7 1 -5 -11 -35 -27 -68 -16 -33 -30 -62 -31
-65 0 -3 -6 -18 -12 -33 -7 -16 -12 -33 -12 -38 0 -5 -4 -9 -8 -9 -5 0 -9 -6
-10 -12 0 -7 -16 -57 -35 -110 -20 -53 -33 -99 -29 -102 3 -3 0 -6 -6 -6 -7 0
-11 -3 -11 -7 1 -5 0 -11 -1 -15 -1 -5 -3 -11 -4 -15 -16 -72 -29 -123 -36
-143 -5 -14 -12 -37 -15 -52 -3 -16 -7 -40 -10 -55 -3 -16 -8 -35 -11 -43 -4
-8 -8 -31 -9 -50 -2 -19 -6 -48 -9 -65 -6 -35 -16 -114 -21 -167 -2 -20 -6
-41 -9 -47 -4 -5 -2 -13 4 -16 7 -4 7 -11 2 -18 -5 -7 -10 -94 -11 -195 -2
-139 1 -187 11 -200 7 -9 8 -13 2 -9 -7 4 -10 -8 -9 -36 2 -23 4 -42 5 -42 1
0 3 -22 5 -50 2 -27 6 -66 9 -85 8 -48 17 -120 19 -150 1 -14 4 -27 7 -30 3
-3 12 -34 19 -70 15 -75 15 -75 36 -160 9 -36 20 -74 25 -85 9 -22 31 -89 34
-108 1 -7 10 -29 19 -51 9 -21 17 -42 17 -47 0 -5 4 -17 9 -27 17 -33 35 -77
36 -87 0 -5 2 -12 5 -15 6 -6 62 -123 62 -130 0 -3 12 -25 25 -50 14 -25 36
-63 47 -85 12 -22 34 -59 49 -82 15 -24 27 -47 27 -53 0 -5 4 -10 8 -10 5 0
19 -20 32 -45 13 -25 27 -45 32 -45 4 0 8 -6 8 -14 0 -8 4 -16 8 -18 5 -1 23
-24 40 -50 18 -25 38 -52 44 -60 7 -7 25 -29 39 -48 15 -19 36 -45 48 -57 12
-12 21 -25 21 -28 0 -3 77 -82 170 -177 94 -94 170 -175 170 -180 0 -5 4 -7 8
-4 4 2 17 -9 27 -25 11 -16 23 -29 26 -29 10 0 536 -530 531 -535 -3 -3 -1 -5
5 -5 12 0 1623 -1610 1623 -1622 0 -4 3 -7 8 -6 4 1 484 -475 1068 -1058 583
-582 1079 -1075 1103 -1094 23 -19 52 -45 63 -57 12 -13 27 -23 33 -23 6 0 17
-9 25 -20 8 -11 20 -20 27 -20 7 0 13 -4 13 -8 0 -4 18 -19 40 -32 22 -14 40
-28 40 -32 0 -5 6 -8 14 -8 8 0 22 -10 30 -22 9 -12 16 -19 16 -15 0 6 75 -38
90 -53 3 -3 14 -10 25 -16 11 -6 47 -26 79 -43 64 -36 190 -99 246 -124 19 -8
58 -25 85 -37 28 -13 61 -26 75 -31 14 -4 57 -19 95 -33 39 -14 78 -26 88 -26
9 0 17 -4 17 -8 0 -8 22 -12 67 -15 12 0 20 -3 17 -6 -4 -5 108 -35 171 -46
11 -2 20 -4 20 -5 0 -1 11 -3 25 -5 14 -2 36 -6 50 -9 26 -5 92 -15 145 -21
17 -2 48 -7 70 -11 38 -6 569 -9 648 -3 20 1 37 5 37 8 0 3 19 7 43 8 23 1 58
5 77 8 19 3 49 7 65 9 17 3 37 7 45 9 8 2 42 9 75 16 33 7 85 20 115 29 30 9
58 17 63 18 4 1 9 3 12 4 3 1 13 3 23 5 9 1 30 7 45 13 16 7 33 10 38 6 5 -3
9 -1 9 3 0 5 17 14 38 20 60 17 136 47 143 56 3 5 10 8 15 7 15 -2 154 63 154
72 0 5 4 7 9 4 5 -3 28 5 52 18 24 13 80 42 124 66 44 23 83 48 87 54 4 6 8 7
8 3 0 -5 6 -2 14 5 8 7 39 28 70 47 31 18 56 38 56 43 0 5 4 7 9 3 5 -3 13 -1
16 5 4 6 23 21 43 34 21 13 47 33 59 45 12 12 25 21 28 21 4 0 12 6 19 12 7 7
39 36 71 63 32 28 64 55 70 62 7 7 15 9 19 6 3 -4 6 -1 6 6 0 13 99 111 113
111 5 0 7 3 5 7 -2 5 135 146 304 314 170 168 308 303 308 300 0 -3 4 0 9 8
10 16 591 600 591 595 0 -2 19 17 43 43 68 75 87 93 98 93 6 0 9 3 7 8 -2 4
18 28 44 53 27 26 48 45 48 43 0 -2 19 17 43 43 60 65 93 99 124 122 14 12 24
21 21 21 -3 0 20 25 50 55 30 30 60 55 65 55 6 0 8 2 5 5 -5 5 325 338 352
355 8 6 12 10 9 10 -10 0 345 350 355 350 5 0 7 2 4 5 -5 6 58 73 100 106 14
10 22 19 18 19 -7 0 8 15 77 77 26 24 45 43 43 43 -2 0 12 16 31 35 19 19 40
35 46 35 6 0 8 2 5 5 -6 7 81 95 94 95 5 0 6 5 3 10 -3 6 2 10 11 10 10 0 15
3 12 6 -7 6 1 14 75 81 26 24 43 43 39 43 -4 0 7 9 23 20 17 11 27 20 23 20
-9 0 4 13 75 78 26 23 45 42 43 42 -2 0 17 21 43 48 25 26 49 46 54 44 4 -2 7
3 8 10 0 7 25 34 55 61 30 26 51 47 48 47 -4 0 3 9 16 20 13 11 28 20 33 20 6
0 7 3 4 6 -4 4 10 20 30 35 20 16 33 29 31 29 -3 0 15 21 41 48 25 26 49 46
54 44 4 -2 7 1 7 6 0 12 121 132 133 132 6 0 8 2 5 5 -5 6 58 73 100 106 14
10 22 19 18 19 -7 0 8 15 77 78 26 23 43 42 39 42 -4 0 7 9 23 20 17 11 27 20
23 20 -9 0 4 13 75 77 26 24 45 43 43 43 -2 0 17 21 43 48 25 26 49 46 54 44
4 -2 7 3 8 10 1 7 32 41 70 76 37 34 66 62 64 62 -2 0 18 23 45 50 28 28 50
55 50 61 0 6 5 7 10 4 6 -3 10 -1 10 4 0 6 15 26 34 46 19 19 31 35 28 35 -4
1 4 10 17 20 13 11 19 20 15 20 -5 0 2 7 14 16 12 8 22 20 22 25 0 6 13 24 30
42 16 17 37 46 47 64 10 18 21 33 25 33 5 0 8 6 8 14 0 8 4 16 8 18 5 2 33 44
63 93 30 50 57 92 62 93 4 2 5 8 1 13 -3 5 0 9 6 9 6 0 9 4 6 9 -4 5 -2 11 2
13 12 5 111 206 104 212 -3 3 0 6 6 6 7 0 11 3 10 8 -1 4 6 22 15 39 10 18 17
34 16 35 -1 2 6 20 15 42 9 21 16 40 16 42 0 1 5 15 11 31 6 15 11 30 11 33 1
3 7 19 14 36 7 17 10 34 7 38 -4 3 -2 6 4 6 5 0 10 6 11 13 1 14 3 25 35 139
14 48 22 89 19 92 -3 3 -1 6 4 6 9 0 15 27 17 78 1 12 4 22 7 22 4 0 7 6 7 13
0 6 3 30 7 52 4 22 9 58 12 80 3 22 8 51 10 65 25 142 25 605 -1 780 -3 19 -7
49 -9 65 -2 17 -5 30 -6 30 -2 0 -11 71 -14 100 0 11 -4 22 -7 25 -4 3 -9 23
-13 45 -3 22 -11 58 -17 80 -12 46 -25 97 -35 138 -3 15 -11 27 -16 27 -5 0
-7 4 -4 9 6 9 -16 83 -40 138 -8 17 -14 34 -14 37 0 4 -7 23 -16 44 -8 20 -15
38 -14 40 0 1 -7 17 -17 35 -9 17 -18 34 -18 37 0 3 -10 25 -21 50 -11 25 -20
48 -20 51 1 3 -4 12 -11 20 -10 13 -83 146 -107 196 -6 13 -14 23 -18 23 -5 0
-8 7 -8 15 0 8 -4 15 -10 15 -5 0 -10 5 -10 11 0 12 -80 133 -92 137 -4 2 -8
8 -8 14 0 10 -67 97 -85 110 -5 4 -6 8 -2 8 8 0 -6 16 -71 85 -18 19 -30 35
-27 35 4 0 -673 680 -1504 1511 -831 831 -1511 1515 -1511 1520 0 5 -3 8 -7 7
-5 -1 -372 362 -818 808 -445 445 -839 834 -874 864 -35 30 -72 64 -82 74 -11
11 -19 16 -19 12 0 -4 -7 0 -16 9 -9 9 -29 24 -43 33 -14 9 -32 25 -39 34 -7
10 -19 18 -27 18 -7 0 -15 3 -17 8 -4 9 -65 52 -74 52 -4 0 -15 10 -25 22 -11
11 -19 18 -19 13 0 -4 -7 -1 -16 6 -21 17 -47 32 -106 62 -26 13 -45 27 -42
30 3 3 -12 11 -35 18 -23 7 -41 15 -41 19 0 4 -27 18 -60 31 -33 13 -60 27
-60 31 0 5 -8 8 -18 8 -10 0 -23 5 -30 12 -7 7 -12 8 -12 4 0 -5 -10 -2 -22 6
-13 8 -50 25 -83 37 -33 12 -67 24 -75 28 -8 3 -24 8 -35 10 -10 2 -22 7 -25
11 -3 4 -14 8 -25 10 -11 2 -47 12 -80 23 -33 11 -72 22 -87 24 -15 3 -37 9
-50 14 -13 5 -26 9 -30 10 -5 0 -9 1 -10 2 -2 0 -16 3 -33 5 -16 3 -53 11 -80
18 -28 7 -65 12 -82 12 -17 -1 -29 2 -27 6 3 4 -4 7 -13 7 -38 1 -129 10 -149
15 -11 2 -50 6 -85 7 -35 2 -67 8 -71 14 -5 6 -8 5 -8 -3 0 -7 -4 -11 -9 -8
-9 6 -214 8 -268 3 -18 -2 -34 1 -36 6 -1 4 -6 5 -10 1z"/>
<path d="M1517 14064 c-1 -1 -24 -4 -52 -5 -103 -6 -249 -61 -358 -133 -143
-95 -266 -259 -317 -422 -32 -105 -35 -129 -34 -264 0 -97 5 -143 23 -205 54
-193 175 -355 351 -469 64 -42 172 -90 227 -101 190 -38 326 -32 487 25 222
76 413 274 492 507 34 101 48 278 30 383 -13 78 -18 96 -46 169 -62 159 -192
314 -339 401 -81 48 -214 97 -287 106 -54 6 -173 12 -177 8z"/>
</g>
</svg>
